<?xml version="1.0" encoding="UTF-8" standalone="no"?>
<!-- Created with Inkscape (http://www.inkscape.org/) -->

<svg
   width="99.994171mm"
   height="109.92934mm"
   viewBox="0 0 99.994171 109.92934"
   version="1.1"
   id="svg1"
   xml:space="preserve"
   sodipodi:docname="dvnLinux.svg"
   inkscape:export-filename="dvnLinux.png"
   inkscape:export-xdpi="100"
   inkscape:export-ydpi="100"
   inkscape:version="1.4 (e7c3feb100, 2024-10-09)"
   xmlns:inkscape="http://www.inkscape.org/namespaces/inkscape"
   xmlns:sodipodi="http://sodipodi.sourceforge.net/DTD/sodipodi-0.dtd"
   xmlns="http://www.w3.org/2000/svg"
   xmlns:svg="http://www.w3.org/2000/svg"><sodipodi:namedview
     id="namedview1"
     pagecolor="#505050"
     bordercolor="#eeeeee"
     borderopacity="1"
     inkscape:showpageshadow="0"
     inkscape:pageopacity="0"
     inkscape:pagecheckerboard="0"
     inkscape:deskcolor="#505050"
     inkscape:document-units="mm"
     inkscape:lockguides="true"
     showgrid="true"
     showguides="true"
     inkscape:zoom="1.4735671"
     inkscape:cx="197.47998"
     inkscape:cy="222.58912"
     inkscape:window-width="1362"
     inkscape:window-height="761"
     inkscape:window-x="0"
     inkscape:window-y="0"
     inkscape:window-maximized="1"
     inkscape:current-layer="layer5"><inkscape:grid
       id="grid1"
       units="mm"
       originx="-0.0020984246"
       originy="-0.066082102"
       spacingx="0.99999998"
       spacingy="1"
       empcolor="#0099e5"
       empopacity="0.30196078"
       color="#0099e5"
       opacity="0.14901961"
       empspacing="5"
       enabled="true"
       visible="true" /><sodipodi:guide
       position="80.016965,187.00794"
       orientation="0,-1"
       id="guide1"
       inkscape:locked="true" /><sodipodi:guide
       position="80.004465,191.09825"
       orientation="1,0"
       id="guide2"
       inkscape:locked="true" /><sodipodi:guide
       position="49.975207,234.12969"
       orientation="1,0"
       id="guide3"
       inkscape:locked="true" /><sodipodi:guide
       position="14.185121,146.69808"
       orientation="0,-1"
       id="guide4"
       inkscape:locked="true" /><sodipodi:guide
       position="19.985918,180.83961"
       orientation="1,0"
       id="guide5"
       inkscape:locked="true" /><sodipodi:guide
       position="34.998381,196.85418"
       orientation="1,0"
       id="guide6"
       inkscape:locked="true" /><sodipodi:guide
       position="64.993556,201.46166"
       orientation="1,0"
       id="guide7"
       inkscape:locked="true" /><sodipodi:guide
       position="40.480217,196.9999"
       orientation="0,-1"
       id="guide8"
       inkscape:locked="true" /><sodipodi:guide
       position="100.00609,185.82365"
       orientation="1,0"
       id="guide9"
       inkscape:locked="true" /><sodipodi:guide
       position="43.433871,232.01038"
       orientation="0,-1"
       id="guide17"
       inkscape:locked="true" /></sodipodi:namedview><defs
     id="defs1"><inkscape:path-effect
       effect="bspline"
       id="path-effect11"
       is_visible="true"
       lpeversion="1.3"
       weight="33.333333"
       steps="2"
       helper_size="0"
       apply_no_weight="true"
       apply_with_weight="true"
       only_selected="false"
       uniform="false" /></defs><g
     inkscape:label="Capa 1"
     inkscape:groupmode="layer"
     id="layer1"
     transform="matrix(0.99950341,0,0,0.99518996,-0.00209306,-0.06599906)"><g
       id="g1"
       transform="matrix(0.56409684,0,0,0.56186096,-10.02471,-26.365443)"><g
         id="layer4"
         inkscape:label="Layer 1"
         style="display:inline"
         sodipodi:insensitive="true"><path
           style="display:inline;fill:#000000;fill-opacity:0;stroke:#4b9434;stroke-width:1.91239;stroke-dasharray:none;stroke-opacity:1"
           d="M 160.82006,163.26231 106.54324,49.364863 78.208976,115.62138 Z"
           id="path6"
           sodipodi:nodetypes="cccc" /><path
           style="display:inline;fill:#000000;fill-opacity:0;stroke:#4b9434;stroke-width:1.91239;stroke-dasharray:none;stroke-opacity:1"
           d="m 19.271538,242.68322 33.894484,-0.0384 26.686505,-16.93375 26.576923,-62.55105 26.62884,62.64362 26.61479,16.83007 33.96855,-0.0669 -28.91694,-63.4145 -94.077511,-47.54573 z"
           id="path7"
           sodipodi:nodetypes="cccccccccc" /><path
           style="display:inline;fill:#4b9434;fill-opacity:0;stroke:#4b9434;stroke-width:1.27493;stroke-dasharray:none;stroke-opacity:1"
           d="M 193.20422,242.94879 106.48265,149.31918"
           id="path8"
           sodipodi:nodetypes="cc" /><path
           style="display:inline;fill:#000000;fill-opacity:0;stroke:#4b9434;stroke-width:1.27493;stroke-dasharray:none;stroke-opacity:1"
           d="m 106.56352,49.909511 -0.11155,81.558249"
           id="path10"
           sodipodi:nodetypes="cc" /><path
           style="display:inline;fill:#000000;fill-opacity:0;stroke:#4b9434;stroke-width:1.24515;stroke-dasharray:none;stroke-opacity:1"
           d="M 159.20055,161.31687 106.51034,98.84825"
           id="path12"
           sodipodi:nodetypes="cc" /><path
           style="fill:#4b9434;fill-opacity:1;stroke:#4b9434;stroke-width:1.27493;stroke-dasharray:none;stroke-opacity:1"
           d="m 77.69047,117.06544 1.14623,18.2656 63.84361,32.89994 18.42584,-3.10356 z"
           id="path25"
           sodipodi:nodetypes="ccccc" /><path
           style="fill:#4b9434;fill-opacity:1;stroke:#4b9434;stroke-width:1.27493;stroke-dasharray:none;stroke-opacity:1"
           d="m 80.275768,225.81123 34.431422,-39.19299 -8.29792,-23.45622 z"
           id="path26"
           sodipodi:nodetypes="cccc" /></g><g
         id="layer5"
         inkscape:label="Capa 2"
         style="display:inline"><path
           style="fill:#c8e9be;fill-opacity:1;stroke:#4b9434;stroke-width:2.91658"
           d="M 240.8527,167.81457 190.60472,108.7555 V 62.801914 c 0,-33.105372 0.23757,-49.749542 0.84969,-49.545501 0.76163,0.253876 105.69598,219.388737 105.73295,220.788747 0.008,0.31831 -5.02828,-7.17152 -5.40384,-7.17152 -0.37557,0 -23.29444,-26.57658 -50.93082,-59.05907 z"
           id="path21"
           transform="matrix(0.46927189,0,0,0.47318137,17.771248,46.925061)"
           sodipodi:nodetypes="scsscss" /><path
           style="fill:#a6da95;fill-opacity:1;stroke:#4b9434;stroke-width:2.91658"
           d="m 240.98397,206.59303 -50.32487,-28.72101 -0.0272,-31.06008 c -0.0149,-17.08305 -0.27274,-34.07534 0.0775,-34.07534 0.74004,0 105.43026,124.29186 106.03695,125.87288 0.22337,0.58209 -4.41247,-3.25819 -4.77619,-3.2714 -0.36373,-0.0132 -23.30752,-12.94849 -50.98619,-28.74505 z"
           id="path22"
           transform="matrix(0.46927189,0,0,0.47318137,17.771248,46.925061)"
           sodipodi:nodetypes="cccssssc" /><path
           style="fill:#c8e9be;fill-opacity:1;stroke:#4b9434;stroke-width:2.91658"
           d="m 284.36372,315.87306 c -44.98888,-48.20539 -85.78887,-92.25636 -85.93034,-92.6285 -0.14147,-0.37215 3.90734,3.64042 4.26098,3.65428 0.35369,0.0138 24.93416,12.25461 54.62327,27.20168 l 53.98021,27.17649 28.01069,60.94776 c 15.40588,33.52127 32.10112,65.34698 32.10112,65.46128 0,1.18045 -16.0427,-15.73335 -87.04593,-91.81299 z"
           id="path23"
           transform="matrix(0.46927189,0,0,0.47318137,17.771248,46.925061)"
           sodipodi:nodetypes="sscscsss" /><path
           style="fill:#78ba63;fill-opacity:1;stroke:#4b9434;stroke-width:2.91658"
           d="m 14.528793,395.29198 c 4.105233,-8.80712 28.125766,-60.32801 53.378962,-114.49087 l 45.914905,-98.47795 38.36331,19.17618 38.36331,19.17617 88.83603,95.12179 88.83601,95.12179 -32.40645,0.20123 -32.40645,0.20124 -27.9211,-17.56401 -27.9211,-17.56402 -28.91529,-67.52192 c -15.90341,-37.13705 -29.1606,-67.77177 -29.46041,-68.07714 -0.29981,-0.30538 -13.67022,30.07948 -29.71203,67.52191 l -29.16691,68.07715 -27.92228,17.54929 -27.922273,17.5493 -33.701147,0.006 -33.7011459,0.006 z"
           id="path24"
           transform="matrix(0.46927189,0,0,0.47318137,17.771248,46.925061)" /><path
           style="fill:#78ba63;fill-opacity:1;stroke:#4b9434;stroke-width:2.91658"
           d="m 159.85956,160.12584 c -14.99993,-8.63856 -27.39324,-15.82711 -27.54069,-15.97455 -0.5523,-0.55231 54.38693,-130.828774 55.31097,-131.131002 0.76742,-0.251004 -0.11183,22.167209 -0.11183,84.532806 0,43.114346 0.62267,80.315916 0.51655,80.285516 -0.10611,-0.0304 -13.17507,-9.07422 -28.175,-17.71277 z"
           id="path27"
           transform="matrix(0.46927189,0,0,0.47318137,17.771248,46.925061)"
           sodipodi:nodetypes="ssssss" /></g></g></g></svg>
