<?xml version="1.0" encoding="UTF-8" standalone="no"?>
<!-- Created with Inkscape (http://www.inkscape.org/) -->

<svg
   width="80.118835mm"
   height="79.368935mm"
   viewBox="0 0 80.118835 79.368937"
   version="1.1"
   id="svg1"
   xml:space="preserve"
   sodipodi:docname="dvnLinuxicon.svg"
   inkscape:export-filename="dvnLinuxIconinc.png"
   inkscape:export-xdpi="100"
   inkscape:export-ydpi="100"
   inkscape:version="1.4 (e7c3feb100, 2024-10-09)"
   xmlns:inkscape="http://www.inkscape.org/namespaces/inkscape"
   xmlns:sodipodi="http://sodipodi.sourceforge.net/DTD/sodipodi-0.dtd"
   xmlns="http://www.w3.org/2000/svg"
   xmlns:svg="http://www.w3.org/2000/svg"><sodipodi:namedview
     id="namedview1"
     pagecolor="#505050"
     bordercolor="#eeeeee"
     borderopacity="1"
     inkscape:showpageshadow="0"
     inkscape:pageopacity="0"
     inkscape:pagecheckerboard="0"
     inkscape:deskcolor="#505050"
     inkscape:document-units="mm"
     inkscape:lockguides="true"
     showgrid="true"
     showguides="true"
     inkscape:zoom="2"
     inkscape:cx="146.25"
     inkscape:cy="119.25"
     inkscape:window-width="1358"
     inkscape:window-height="755"
     inkscape:window-x="3"
     inkscape:window-y="32"
     inkscape:window-maximized="0"
     inkscape:current-layer="layer3"><inkscape:grid
       id="grid1"
       units="mm"
       originx="-0.115611"
       originy="-0.17859905"
       spacingx="0.99999998"
       spacingy="1"
       empcolor="#0099e5"
       empopacity="0.30196078"
       color="#0099e5"
       opacity="0.14901961"
       empspacing="5"
       enabled="true"
       visible="true" /><sodipodi:guide
       position="80.016965,187.00794"
       orientation="0,-1"
       id="guide1"
       inkscape:locked="true" /><sodipodi:guide
       position="80.004465,191.09825"
       orientation="1,0"
       id="guide2"
       inkscape:locked="true" /><sodipodi:guide
       position="49.975207,234.12969"
       orientation="1,0"
       id="guide3"
       inkscape:locked="true" /><sodipodi:guide
       position="14.185121,146.69808"
       orientation="0,-1"
       id="guide4"
       inkscape:locked="true" /><sodipodi:guide
       position="19.985918,180.83961"
       orientation="1,0"
       id="guide5"
       inkscape:locked="true" /><sodipodi:guide
       position="34.998381,196.85418"
       orientation="1,0"
       id="guide6"
       inkscape:locked="true" /><sodipodi:guide
       position="64.993556,201.46166"
       orientation="1,0"
       id="guide7"
       inkscape:locked="true" /><sodipodi:guide
       position="40.480217,196.9999"
       orientation="0,-1"
       id="guide8"
       inkscape:locked="true" /><sodipodi:guide
       position="100.00609,185.82365"
       orientation="1,0"
       id="guide9"
       inkscape:locked="true" /><sodipodi:guide
       position="43.433871,232.01038"
       orientation="0,-1"
       id="guide17"
       inkscape:locked="true" /></sodipodi:namedview><defs
     id="defs1"><inkscape:path-effect
       effect="bspline"
       id="path-effect11"
       is_visible="true"
       lpeversion="1.3"
       weight="33.333333"
       steps="2"
       helper_size="0"
       apply_no_weight="true"
       apply_with_weight="true"
       only_selected="false"
       uniform="false" /></defs><g
     inkscape:groupmode="layer"
     id="layer2"
     inkscape:label="Layer 1"
     transform="translate(-0.11351258,-0.11251694)"
     style="display:inline"><ellipse
       style="fill:#a6da95;fill-opacity:1;stroke:#181926;stroke-width:2;stroke-dasharray:none;stroke-opacity:1"
       id="path1"
       ry="38.527451"
       rx="38.902401"
       cy="39.796986"
       cx="40.172932" /></g><g
     inkscape:groupmode="layer"
     id="layer3"
     inkscape:label="Capa 2"><path
       style="fill:#c8e9be;fill-opacity:1;stroke:#181926;stroke-width:1.88976;stroke-dasharray:none;stroke-opacity:0"
       d="M 176.17643,107.39902 152.00528,78.549935 c 1.78886,-14.2217 -2.54584,-34.728084 0.58837,-48.634791 0.4697,0.156568 53.22003,110.058386 53.22003,110.869076 -8.35123,-7.07725 -21.75536,-24.24336 -29.63725,-33.3852 z"
       id="path4"
       transform="scale(0.26458333)"
       sodipodi:nodetypes="ccssc" /><path
       style="fill:#a6da95;fill-opacity:1;stroke:#181926;stroke-width:1.88976;stroke-dasharray:none;stroke-opacity:0"
       d="m 175.36596,131.64581 -23.61857,-15.30452 0.84828,-15.90598 c 0.48542,-9.102076 0.84541,-15.861348 1.05717,-15.668466 0.34331,0.312702 14.61804,15.797516 27.83142,30.859616 13.21339,15.0621 25.56592,31.68185 24.77627,31.67946 -0.19794,-6.1e-4 -17.83962,-7.20068 -30.89457,-15.66011 z"
       id="path5"
       transform="scale(0.26458333)"
       sodipodi:nodetypes="scsssss" /><path
       style="fill:#4b9434;fill-opacity:1;stroke:#181926;stroke-width:1.88976;stroke-dasharray:none;stroke-opacity:0"
       d="m 133.42856,106.19832 c -7.37414,-4.21536 -13.86404,-8.544931 -13.95543,-8.636325 -0.32138,-0.321372 28.98808,-67.636027 29.52882,-67.816274 0.40695,-0.135649 0.33532,15.14445 0.33532,44.070407 0,21.399783 -0.54,39.937112 -0.73794,39.923412 -0.19795,-0.0137 -7.79663,-3.32587 -15.17077,-7.54122 z"
       id="path9"
       transform="scale(0.26458333)"
       sodipodi:nodetypes="ssssss" /><path
       style="fill:#4b9434;fill-opacity:1;stroke:#181926;stroke-width:1.88976;stroke-dasharray:none;stroke-opacity:0"
       d="m 51.672136,242.24439 c 0.161404,-0.26115 12.515306,-29.02193 28.07519,-62.20213 15.559884,-33.18021 29.680794,-61.14055 29.876474,-61.31762 0.19566,-0.17708 9.56682,3.65699 20.26997,9.57735 l 21.18733,10.37772 47.88433,51.94491 47.93056,51.43719 -17.16428,-0.0212 -17.14306,0.31811 -14.68669,-9.41353 -15.72585,-9.03181 -13.11798,-31.86063 c -7.11387,-17.278 -14.51984,-34.13528 -15.99993,-37.66707 -1.48008,-3.53179 -2.35311,-6.7197 -2.48437,-6.85096 -0.13126,-0.13126 -0.44968,1.75579 -1.27783,3.67505 -0.82815,1.91926 -7.86514,18.77612 -15.92287,37.51153 -8.05773,18.7354 -15.00003,34.62328 -15.32366,34.94351 -0.32363,0.32024 -6.59543,6.08954 -15.04422,10.38032 l -14.964767,8.99221 -18.267282,0.0212 c -11.549282,0.0134 -18.292606,-0.50422 -18.101065,-0.81415 z"
       id="path11"
       transform="scale(0.26458333)"
       sodipodi:nodetypes="sssscccccccssssssscss" /><path
       style="fill:#c8e9be;fill-opacity:1;stroke:#181926;stroke-width:1.88976;stroke-dasharray:none;stroke-opacity:0"
       d="m 159.08251,143.24965 c -1.33118,-13.68896 42.27449,12.99418 57.85024,29.16498 15.57575,16.1708 28.13955,50.64308 29.11708,63.57625 -0.28286,-0.005 -85.94361,-82.21414 -86.96732,-92.74123 z"
       id="path13"
       transform="scale(0.26458333)"
       sodipodi:nodetypes="szss" /></g><g
     inkscape:label="Capa 1"
     inkscape:groupmode="layer"
     id="layer1"
     transform="matrix(0.99299391,0,0,0.9834304,0.14439145,1.3015255)"
     style="stroke-width:1.01194;stroke-dasharray:none"><path
       style="display:inline;fill:#181926;fill-opacity:1;stroke:#181926;stroke-width:3.27071;stroke-dasharray:none;stroke-opacity:1"
       d="m 80.275768,225.81123 34.431422,-39.19299 -8.29792,-23.45622 z"
       id="path26"
       sodipodi:nodetypes="cccc"
       transform="matrix(0.31000998,0,0,0.3087812,6.9402433,-10.632449)" /><path
       style="display:inline;fill:#181926;fill-opacity:1;stroke:#181926;stroke-width:0.960014;stroke-dasharray:none;stroke-opacity:1"
       d="m 31.163275,26.171431 0.619078,4.255385 19.509583,9.887102 6.400455,1.087806 z"
       id="path25"
       sodipodi:nodetypes="ccccc" /><path
       style="display:inline;fill:#ffffff;fill-opacity:0.0128755;stroke:#181926;stroke-width:3.27071;stroke-dasharray:none;stroke-opacity:1"
       d="m 106.56352,49.909511 -0.11155,81.558249"
       id="path10"
       sodipodi:nodetypes="cc"
       transform="matrix(0.31000998,0,0,0.3087812,6.9402433,-10.632449)" /><path
       style="display:inline;fill:#ffffff;fill-opacity:0.0128755;stroke:#181926;stroke-width:3.27071;stroke-dasharray:none;stroke-opacity:1"
       d="M 193.20422,242.94879 106.48265,149.31918"
       id="path8"
       sodipodi:nodetypes="cc"
       transform="matrix(0.31000998,0,0,0.3087812,6.9402433,-10.632449)" /><path
       style="display:inline;fill:#ffffff;fill-opacity:0.0128755;stroke:#181926;stroke-width:3.27071;stroke-dasharray:none;stroke-opacity:1"
       d="m 19.271538,242.68322 33.894484,-0.0384 26.686505,-16.93375 26.576923,-62.55105 26.62884,62.64362 26.61479,16.83007 33.96855,-0.0669 -28.91694,-63.4145 -94.077511,-47.54573 z"
       id="path7"
       sodipodi:nodetypes="cccccccccc"
       transform="matrix(0.31000998,0,0,0.3087812,6.9402433,-10.632449)" /><path
       style="display:inline;fill:#ffffff;fill-opacity:0.0128755;stroke:#181926;stroke-width:3.27071;stroke-dasharray:none;stroke-opacity:1"
       d="M 159.20055,161.31687 106.51034,98.84825"
       id="path12"
       sodipodi:nodetypes="cc"
       transform="matrix(0.31000998,0,0,0.3087812,6.9402433,-10.632449)" /><path
       style="display:inline;fill:#ffffff;fill-opacity:0.0128755;stroke:#181926;stroke-width:3.27071;stroke-dasharray:none;stroke-opacity:1"
       d="M 160.82006,163.26231 106.54324,49.364863 78.208976,115.62138 Z"
       id="path6"
       sodipodi:nodetypes="cccc"
       transform="matrix(0.31000998,0,0,0.3087812,6.9402433,-10.632449)" /></g></svg>
