<?xml version="1.0" encoding="UTF-8" standalone="no"?>
<!-- Created with Inkscape (http://www.inkscape.org/) -->

<svg
   width="99.994171mm"
   height="109.92934mm"
   viewBox="0 0 99.994171 109.92934"
   version="1.1"
   id="svg1"
   xml:space="preserve"
   sodipodi:docname="dvnLinuxBorderless.svg"
   inkscape:export-filename="dvnLinuxBorderless.png"
   inkscape:export-xdpi="100"
   inkscape:export-ydpi="100"
   inkscape:version="1.4 (e7c3feb100, 2024-10-09)"
   xmlns:inkscape="http://www.inkscape.org/namespaces/inkscape"
   xmlns:sodipodi="http://sodipodi.sourceforge.net/DTD/sodipodi-0.dtd"
   xmlns="http://www.w3.org/2000/svg"
   xmlns:svg="http://www.w3.org/2000/svg"><sodipodi:namedview
     id="namedview1"
     pagecolor="#505050"
     bordercolor="#eeeeee"
     borderopacity="1"
     inkscape:showpageshadow="0"
     inkscape:pageopacity="0"
     inkscape:pagecheckerboard="0"
     inkscape:deskcolor="#505050"
     inkscape:document-units="mm"
     inkscape:lockguides="true"
     showgrid="true"
     showguides="true"
     inkscape:zoom="1.1534026"
     inkscape:cx="118.34549"
     inkscape:cy="179.90249"
     inkscape:window-width="1338"
     inkscape:window-height="755"
     inkscape:window-x="15"
     inkscape:window-y="32"
     inkscape:window-maximized="0"
     inkscape:current-layer="g1"><inkscape:grid
       id="grid1"
       units="mm"
       originx="-0.0020984246"
       originy="-0.066082102"
       spacingx="0.99999998"
       spacingy="1"
       empcolor="#0099e5"
       empopacity="0.30196078"
       color="#0099e5"
       opacity="0.14901961"
       empspacing="5"
       enabled="true"
       visible="true" /><sodipodi:guide
       position="80.016965,187.00794"
       orientation="0,-1"
       id="guide1"
       inkscape:locked="true" /><sodipodi:guide
       position="80.004465,191.09825"
       orientation="1,0"
       id="guide2"
       inkscape:locked="true" /><sodipodi:guide
       position="49.975207,234.12969"
       orientation="1,0"
       id="guide3"
       inkscape:locked="true" /><sodipodi:guide
       position="14.185121,146.69808"
       orientation="0,-1"
       id="guide4"
       inkscape:locked="true" /><sodipodi:guide
       position="19.985918,180.83961"
       orientation="1,0"
       id="guide5"
       inkscape:locked="true" /><sodipodi:guide
       position="34.998381,196.85418"
       orientation="1,0"
       id="guide6"
       inkscape:locked="true" /><sodipodi:guide
       position="64.993556,201.46166"
       orientation="1,0"
       id="guide7"
       inkscape:locked="true" /><sodipodi:guide
       position="40.480217,196.9999"
       orientation="0,-1"
       id="guide8"
       inkscape:locked="true" /><sodipodi:guide
       position="100.00609,185.82365"
       orientation="1,0"
       id="guide9"
       inkscape:locked="true" /><sodipodi:guide
       position="43.433871,232.01038"
       orientation="0,-1"
       id="guide17"
       inkscape:locked="true" /></sodipodi:namedview><defs
     id="defs1"><inkscape:path-effect
       effect="bspline"
       id="path-effect11"
       is_visible="true"
       lpeversion="1.3"
       weight="33.333333"
       steps="2"
       helper_size="0"
       apply_no_weight="true"
       apply_with_weight="true"
       only_selected="false"
       uniform="false" /></defs><g
     inkscape:label="Capa 1"
     inkscape:groupmode="layer"
     id="layer1"
     transform="matrix(0.99950341,0,0,0.99518996,-0.00209306,-0.06599906)"><g
       id="g1"
       transform="matrix(0.56409684,0,0,0.56186096,-10.02471,-26.365443)"><g
         id="layer5"
         inkscape:label="Capa 2"
         style="display:inline"><path
           style="fill:#c8e9be;fill-opacity:1;stroke:#c8e9be;stroke-width:3.27685"
           d="m 240.64951,167.23895 -50.45139,-58.50615 0.21675,-45.280968 c 0.14533,-30.362061 -0.57458,-52.932295 0.012,-52.736752 0.80971,0.269902 110.81411,227.54412 110.84282,229.01039 -11.77948,-5.63559 -50.41572,-60.50255 -60.62023,-72.48652 z"
           id="path1"
           transform="matrix(0.46927189,0,0,0.47318137,17.774969,47.043242)"
           sodipodi:nodetypes="scssss" /><path
           style="fill:#a6da95;fill-opacity:1;stroke:#a6da95;stroke-width:3.27685;stroke-opacity:1"
           d="m 189.65624,176.43398 c 0.23643,-21.9928 -1.48616,-41.56347 -1.54592,-65.20879 -0.002,-0.97852 112.66502,132.19994 112.03421,131.82362 -15.82274,-9.4393 -63.20163,-41.86568 -110.48829,-66.61483 z"
           id="path2"
           transform="matrix(0.46927189,0,0,0.47318137,17.774969,47.043242)"
           sodipodi:nodetypes="cssc" /><path
           style="fill:#78ba63;fill-opacity:1;stroke:#78ba63;stroke-width:3.27685;stroke-opacity:1"
           d="m 132.86418,144.03284 c -1.02569,-0.59101 48.20422,-104.197601 54.1552,-133.526574 0.86051,-4.2409767 -0.0409,126.074484 0.14423,164.562594 -17.68423,-10.55002 -36.29238,-20.66016 -54.29943,-31.03602 z"
           id="path3"
           transform="matrix(0.46927189,0,0,0.47318137,17.774969,47.043242)"
           sodipodi:nodetypes="sscs" /><path
           style="fill:#c8e9be;fill-opacity:1;stroke:#c8e9be;stroke-width:3.27685"
           d="m 193.34073,221.50469 c 35.96749,16.84558 82.3972,41.85879 117.92784,59.6213 12.70434,39.11977 81.41854,152.24091 55.05823,124.27988 C 361.55859,400.34811 192.07992,222.7655 193.34073,221.50469 Z"
           id="path4"
           transform="matrix(0.46927189,0,0,0.47318137,17.774969,47.043242)"
           sodipodi:nodetypes="scss" /><path
           style="display:inline;fill:#78ba63;fill-opacity:1;stroke:#78ba63;stroke-width:3.27685;stroke-opacity:1"
           d="M 7.6341231,409.87422 C 8.4556477,407.89634 113.26332,183.44452 113.68075,182.7691 c 0.22535,-0.36463 17.54057,7.90419 38.47827,18.37515 l 38.06853,19.03811 85.56894,91.70306 c 47.06293,50.43668 87.15229,93.36119 89.08748,95.3878 l 3.51854,3.68475 H 335.88358 303.36465 L 275.66331,393.60238 247.96198,376.2468 218.82166,308.5844 c -16.02718,-37.21432 -29.48735,-67.68449 -29.9115,-67.71148 -0.42415,-0.027 -13.80741,30.35329 -29.7406,67.51173 l -28.96942,67.56079 -27.81907,17.49569 -27.819076,17.49569 -33.689007,0.0106 c -26.616534,0.008 -33.5945059,-0.21694 -33.2388639,-1.07317 z"
           id="path5"
           transform="matrix(0.46927189,0,0,0.47318137,17.774969,47.043242)" /></g><g
         id="layer4"
         inkscape:label="Layer 1"
         style="display:inline"
         sodipodi:insensitive="true"><path
           style="display:inline;fill:#000000;fill-opacity:0;stroke:#4b9434;stroke-width:1.91239;stroke-dasharray:none;stroke-opacity:1"
           d="M 160.82006,163.26231 106.54324,49.364863 78.208976,115.62138 Z"
           id="path6"
           sodipodi:nodetypes="cccc" /><path
           style="display:inline;fill:#000000;fill-opacity:0;stroke:#4b9434;stroke-width:1.91239;stroke-dasharray:none;stroke-opacity:1"
           d="m 19.271538,242.68322 33.894484,-0.0384 26.686505,-16.93375 26.576923,-62.55105 26.62884,62.64362 26.61479,16.83007 33.96855,-0.0669 -28.91694,-63.4145 -94.077511,-47.54573 z"
           id="path7"
           sodipodi:nodetypes="cccccccccc" /><path
           style="display:none;fill:#4b9434;fill-opacity:0;stroke:#4b9434;stroke-width:1.27493;stroke-dasharray:none;stroke-opacity:1"
           d="M 193.20422,242.94879 106.48265,149.31918"
           id="path8"
           sodipodi:nodetypes="cc" /><path
           style="display:none;fill:#000000;fill-opacity:0;stroke:#4b9434;stroke-width:1.27493;stroke-dasharray:none;stroke-opacity:1"
           d="m 106.56352,49.909511 -0.11155,81.558249"
           id="path10"
           sodipodi:nodetypes="cc" /><path
           style="display:none;fill:#000000;fill-opacity:0;stroke:#4b9434;stroke-width:1.24515;stroke-dasharray:none;stroke-opacity:1"
           d="M 159.20055,161.31687 106.51034,98.84825"
           id="path12"
           sodipodi:nodetypes="cc" /><path
           style="fill:#4b9434;fill-opacity:1;stroke:#4b9434;stroke-width:1.27493;stroke-dasharray:none;stroke-opacity:1"
           d="m 77.69047,117.06544 1.14623,18.2656 63.84361,32.89994 18.42584,-3.10356 z"
           id="path25"
           sodipodi:nodetypes="ccccc" /><path
           style="display:inline;fill:#4b9434;fill-opacity:1;stroke:#4b9434;stroke-width:1.27493;stroke-dasharray:none;stroke-opacity:1"
           d="m 80.275768,225.81123 34.431422,-39.19299 -8.29792,-23.45622 z"
           id="path26"
           sodipodi:nodetypes="cccc" /></g></g></g></svg>
